<?xml version="1.0" encoding="UTF-8"?>
<svg version="1.1" xmlns="http://www.w3.org/2000/svg" width="1024" height="296">
<path d="M0 0 C337.92 0 675.84 0 1024 0 C1024 97.68 1024 195.36 1024 296 C686.08 296 348.16 296 0 296 C0 198.32 0 100.64 0 0 Z " fill="#FCFCFC" transform="translate(0,0)"/>
<path d="M0 0 C4.07576419 1.6038914 7.93666883 3.54981962 11.828125 5.5546875 C12.971745 6.13026398 14.11536499 6.70584045 15.29364014 7.29885864 C18.33736703 8.831221 21.37217822 10.38048865 24.40551758 11.93328857 C27.42369822 13.47423858 30.45062071 14.99780286 33.4765625 16.5234375 C43.46115327 21.56915603 53.41608007 26.66442497 63.29296875 31.91796875 C71.42496722 36.238778 79.65993419 40.34495944 87.91015625 44.43359375 C89.23553482 45.09110467 90.56090305 45.74863645 91.88626099 46.40618896 C97.34096351 49.11120123 102.79652065 51.81442129 108.25805664 54.50561523 C111.64852377 56.17664185 115.0350683 57.85538952 118.41915703 59.53929329 C119.6971477 60.17335217 120.97659281 60.80448855 122.25752449 61.43258476 C124.03085943 62.30243869 125.79889609 63.18306917 127.56665039 64.06420898 C129.07286705 64.80839333 129.07286705 64.80839333 130.60951233 65.56761169 C133 67 133 67 135 70 C134.84399414 72.04296875 134.84399414 72.04296875 134 74 C132.50170898 75.23828125 132.50170898 75.23828125 130.49609375 76.3125 C129.71274658 76.73805176 128.92939941 77.16360352 128.12231445 77.60205078 C127.23632568 78.06337402 126.35033691 78.52469727 125.4375 79 C124.49801514 79.50128418 123.55853027 80.00256836 122.59057617 80.51904297 C110.76456173 86.76297297 98.76587851 92.68563458 86.78100586 98.6171875 C77.63682929 103.14714125 68.55671193 107.77393828 59.53852844 112.55020142 C53.7349709 115.6225674 47.89108686 118.59867172 42 121.5 C34.91045787 125.01707262 27.86954179 128.61008586 20.875 132.3125 C20.09350586 132.72419434 19.31201172 133.13588867 18.50683594 133.56005859 C15.12721113 135.34105573 11.75429357 137.13163461 8.3984375 138.95703125 C7.35945312 139.50746094 6.32046875 140.05789062 5.25 140.625 C4.38890625 141.09164062 3.5278125 141.55828125 2.640625 142.0390625 C-1.952344 143.71046838 -5.76514991 143.48295994 -10.30029297 141.70922852 C-11.43611816 141.10522217 -12.57194336 140.50121582 -13.7421875 139.87890625 C-14.3747496 139.54791931 -15.00731171 139.21693237 -15.65904236 138.87591553 C-17.73815593 137.78439864 -19.80619795 136.67341747 -21.875 135.5625 C-23.34253622 134.78842601 -24.8108951 134.01590988 -26.2800293 133.24487305 C-29.3346604 131.64007396 -32.38563447 130.02862221 -35.43408203 128.41210938 C-41.84955743 125.01561117 -48.30162953 121.69051823 -54.75674438 118.37014771 C-56.80880422 117.31440141 -58.85989689 116.25679404 -60.91088867 115.19897461 C-73.31090301 108.80998557 -85.77875428 102.56000977 -98.2722168 96.35595703 C-101.18381668 94.90862635 -104.09226263 93.45507277 -107 92 C-106.9480013 96.37595961 -106.85288939 100.7499644 -106.75 105.125 C-106.73582031 106.3625 -106.72164062 107.6 -106.70703125 108.875 C-106.52485257 115.6520469 -106.28217991 119.72036453 -102 125 C-101.6785159 128.00743195 -102.29581533 129.98206568 -103 133 C-103.66 133.66 -104.32 134.32 -105 135 C-104.59926948 140.72959389 -102.24090831 145.8264841 -100.08398438 151.078125 C-98.47345215 155.16489927 -97.38317713 158.53290382 -98 163 C-99.67326236 165.29676844 -100.57201039 165.93089932 -103.40429688 166.38818359 C-104.33306641 166.39156738 -105.26183594 166.39495117 -106.21875 166.3984375 C-107.23324219 166.40230469 -108.24773437 166.40617188 -109.29296875 166.41015625 C-110.35128906 166.39855469 -111.40960938 166.38695312 -112.5 166.375 C-113.55832031 166.38660156 -114.61664063 166.39820313 -115.70703125 166.41015625 C-117.22876953 166.40435547 -117.22876953 166.40435547 -118.78125 166.3984375 C-120.1744043 166.39336182 -120.1744043 166.39336182 -121.59570312 166.38818359 C-124.42675858 165.93109808 -125.32175876 165.29003242 -127 163 C-128.02411861 156.543176 -124.77004291 150.66746008 -122.40039062 144.8125 C-122.08134766 143.99523437 -121.76230469 143.17796875 -121.43359375 142.3359375 C-121.13509521 141.59907715 -120.83659668 140.8622168 -120.52905273 140.10302734 C-119.91384012 137.65750753 -120.15714411 136.35301166 -121 134 C-121.37125 133.401875 -121.7425 132.80375 -122.125 132.1875 C-123.43851034 128.90372414 -122.74089292 126.39575922 -122 123 C-121.34 122.01 -120.68 121.02 -120 120 C-119.34 120 -118.68 120 -118 120 C-118 108.45 -118 96.9 -118 85 C-119.98 84.34 -121.96 83.68 -124 83 C-125.28295248 82.41138759 -126.55170708 81.78982215 -127.796875 81.125 C-128.44527344 80.77953125 -129.09367187 80.4340625 -129.76171875 80.078125 C-130.41785156 79.72234375 -131.07398438 79.3665625 -131.75 79 C-132.42160156 78.64421875 -133.09320313 78.2884375 -133.78515625 77.921875 C-136.4932442 76.46743097 -138.8143696 75.1856304 -141 73 C-141.1640625 70.67578125 -141.1640625 70.67578125 -140 68 C-137.32375781 66.00765073 -134.37418821 64.63054094 -131.375 63.1875 C-129.62601672 62.30916174 -127.87732183 61.43024902 -126.12890625 60.55078125 C-125.25766113 60.11975098 -124.38641602 59.6887207 -123.48876953 59.24462891 C-120.74426354 57.87210668 -118.03876375 56.4397291 -115.34350586 54.97338867 C-109.80889095 51.98021251 -104.23445064 49.0868282 -98.60083008 46.28564453 C-97.9118781 45.94212008 -97.22292612 45.59859562 -96.51309681 45.24466133 C-95.06523231 44.52279602 -93.6171809 43.8013055 -92.16894913 43.08017731 C-89.38593818 41.69418571 -86.60415713 40.30573663 -83.82238293 38.91726494 C-81.71235332 37.86414393 -79.60212757 36.81141679 -77.49186707 35.75875854 C-72.02483561 33.03140201 -66.55883281 30.30198589 -61.09292889 27.57237053 C-56.96669396 25.51187199 -52.84008115 23.45213737 -48.71264648 21.39404297 C-44.66678487 19.37658113 -40.62193009 17.35711349 -36.57773781 15.33630753 C-35.05488038 14.57579246 -33.53167513 13.81597341 -32.00809288 13.05691147 C-29.87252112 11.9928069 -27.73821267 10.92620997 -25.60424805 9.85888672 C-24.605756 9.36184644 -24.605756 9.36184644 -23.5870924 8.85476494 C-19.61418314 6.86248431 -15.76470532 4.72389392 -11.92114258 2.48876953 C-7.63819632 0.17400526 -4.93582334 -1.00358575 0 0 Z " fill="#06447C" transform="translate(250,8)"/>
<path d="M0 0 C10.20726685 5.07668891 20.37786768 10.21898143 30.51104736 15.44195557 C32.7538653 16.59666811 34.9985893 17.74760851 37.24365234 18.89794922 C43.97777738 22.3526582 50.70174882 25.82034363 57.3662262 29.40800476 C59.99550221 30.82316249 62.63127212 32.22599243 65.26724243 33.62863159 C66.49078506 34.28485243 67.71078413 34.94773042 68.92684937 35.6177063 C78.44541351 41.10179944 78.44541351 41.10179944 89 41 C93.96931201 39.02699122 98.6556998 36.61841578 103.375 34.125 C104.72975513 33.42610979 106.08531432 32.7287761 107.44165039 32.03295898 C110.73446247 30.338224 114.0162406 28.62350599 117.29315186 26.89825439 C119.55824504 25.70621519 121.82811971 24.52339645 124.09765625 23.33984375 C126.9935948 21.82365223 129.88298811 20.29571024 132.76953125 18.76171875 C139.31366521 15.29339473 145.89203492 11.89091841 152.47097778 8.48922729 C153.90276877 7.74859399 155.33414781 7.00716376 156.7651062 6.2649231 C158.77205578 5.22407764 160.78035911 4.18589339 162.7890625 3.1484375 C163.70790474 2.67111931 163.70790474 2.67111931 164.64530945 2.18415833 C168.88563065 0 168.88563065 0 170 0 C169.9969838 0.65431 169.99396759 1.30862 169.99085999 1.98275757 C169.96618432 8.82968013 169.99058303 15.67521349 170.04272461 22.52197266 C170.05581614 25.07272039 170.0566431 27.62356314 170.04467773 30.17431641 C170.02959065 33.85412908 170.05947146 37.53133751 170.09765625 41.2109375 C170.07627342 42.90529434 170.07627342 42.90529434 170.05445862 44.63388062 C170.18695342 51.97753601 171.73177563 56.20561351 176.35169983 61.94549561 C178.34342395 64.42805675 179.39894569 66.85729081 180.375 69.875 C180.81972656 71.20144531 180.81972656 71.20144531 181.2734375 72.5546875 C181.51320313 73.36164063 181.75296875 74.16859375 182 75 C182.28810547 75.94939453 182.28810547 75.94939453 182.58203125 76.91796875 C185.05658427 89.24448051 182.0839329 101.25080591 175.75 111.875 C169.00043302 121.67963414 159.15076404 128.39415329 147.640625 131.671875 C131.37602285 133.69292024 118.77650953 131.45595681 105.54296875 121.296875 C98.71487306 115.12956277 93.23990223 107.00381753 91 98 C91 96.02 91 94.04 91 92 C87.04 92 83.08 92 79 92 C78.79375 93.4025 78.5875 94.805 78.375 96.25 C75.88180622 108.40646896 69.51158841 117.53702661 59.55078125 124.78125 C48.15184052 132.08229838 36.29995007 133.48410237 23 132 C10.95171054 129.21391045 1.18918505 121.96804711 -6 112 C-13.01741611 100.16160042 -15.15479713 87.23528634 -12.3125 73.734375 C-9.92183683 66.76160742 -6.24891635 59.24891635 -1 54 C-0.66868587 51.61519954 -0.66868587 51.61519954 -0.68115234 48.81591797 C-0.65134781 47.19446365 -0.65134781 47.19446365 -0.62094116 45.54025269 C-0.60938995 44.36939117 -0.59783875 43.19852966 -0.5859375 41.9921875 C-0.56657135 40.79643097 -0.5472052 39.60067444 -0.5272522 38.36868286 C-0.46732056 34.53752852 -0.4210164 30.70634435 -0.375 26.875 C-0.33683276 24.28253875 -0.29778179 21.69009034 -0.2578125 19.09765625 C-0.1616079 12.73188463 -0.07660039 6.36603605 0 0 Z " fill="#06427A" transform="translate(162,121)"/>
<path d="M0 0 C5.94 0 11.88 0 18 0 C19.52838931 1.52838931 19.12592254 2.89235268 19.12698364 5.02380371 C19.13121338 6.32368477 19.13121338 6.32368477 19.13552856 7.64982605 C19.13249222 9.08676567 19.13249222 9.08676567 19.12939453 10.55273438 C19.13202301 12.05747063 19.13202301 12.05747063 19.13470459 13.59260559 C19.13912516 16.92633772 19.13618439 20.26001729 19.1328125 23.59375 C19.13348548 25.89921072 19.13445545 28.20467136 19.13571167 30.51013184 C19.13718892 35.34904657 19.13503321 40.18794287 19.13037109 45.02685547 C19.1246738 51.24494645 19.12795266 57.46299428 19.13394356 63.68108368 C19.13754843 68.44383065 19.13641092 73.2065673 19.13381577 77.96931458 C19.13314629 80.26276149 19.13397562 82.55620932 19.13629532 84.84965515 C19.13882064 88.04888406 19.13498295 91.24804203 19.12939453 94.44726562 C19.13141876 95.40522537 19.13344299 96.36318512 19.13552856 97.35017395 C19.13270874 98.21676132 19.12988892 99.08334869 19.12698364 99.97619629 C19.1264181 101.1122015 19.1264181 101.1122015 19.12584114 102.27115631 C19 104 19 104 18 105 C15.13732433 105.07325168 12.299281 105.09238205 9.4375 105.0625 C8.63119141 105.05798828 7.82488281 105.05347656 6.99414062 105.04882812 C4.99606244 105.03700518 2.99802217 105.01906914 1 105 C0.34 102.69 -0.32 100.38 -1 98 C-1.44730469 98.40992188 -1.89460937 98.81984375 -2.35546875 99.2421875 C-2.96003906 99.78101563 -3.56460938 100.31984375 -4.1875 100.875 C-4.77917969 101.40867187 -5.37085938 101.94234375 -5.98046875 102.4921875 C-12.52668211 107.37968916 -21.19185177 106.96270246 -29 106 C-36.91762523 103.70859425 -43.09375795 98.5912441 -47.46875 91.6796875 C-53.45935882 80.56919789 -55.13472742 67.01737655 -51.875 54.75 C-48.57553766 45.37582662 -43.52804404 37.57701043 -34.71875 32.75 C-26.63486291 29.06620335 -18.97182279 28.62922946 -10.625 31.75 C-6.66325783 33.4194967 -4.55951983 35.15238413 -1 38 C-0.67 25.46 -0.34 12.92 0 0 Z " fill="#054179" transform="translate(514,111)"/>
<path d="M0 0 C7.92172098 5.67234342 13.47102047 14.69594082 15.25 24.3125 C16.13667886 38.1650402 14.81643409 50.43094637 5.25 61.3125 C-4.86793075 69.89115371 -15.59747443 71.53492745 -28.4765625 70.61425781 C-36.21835915 69.58667398 -43.12652604 65.01431256 -48.2890625 59.28515625 C-55.67377488 49.31382002 -57.98794523 37.53720919 -56.75 25.3125 C-54.2604636 13.91155487 -48.40899298 4.93628859 -38.75 -1.6875 C-26.27793151 -8.29379878 -11.90420564 -7.28140578 0 0 Z " fill="#064179" transform="translate(880.75,146.6875)"/>
<path d="M0 0 C5.83335045 4.17696699 8.82318917 9.15229854 10.125 16.1875 C10.39918793 20.19708486 10.38175635 24.19337464 10.35546875 28.2109375 C10.35501053 29.35285553 10.35455231 30.49477356 10.3540802 31.67129517 C10.35106948 34.07335455 10.34321872 36.47541218 10.33081055 38.87744141 C10.31245922 42.57070754 10.31030167 46.26372411 10.31054688 49.95703125 C10.3056349 52.29166885 10.29980799 54.62630475 10.29296875 56.9609375 C10.29185593 58.07125336 10.2907431 59.18156921 10.28959656 60.32553101 C10.28321671 61.34394073 10.27683685 62.36235046 10.27026367 63.41162109 C10.26645187 64.31206146 10.26264008 65.21250183 10.25871277 66.14022827 C10.125 68.1875 10.125 68.1875 9.125 69.1875 C7.78232587 69.27381874 6.43525678 69.29456473 5.08984375 69.28515625 C4.28095703 69.28193359 3.47207031 69.27871094 2.63867188 69.27539062 C1.78853516 69.26701172 0.93839844 69.25863281 0.0625 69.25 C-0.79150391 69.24548828 -1.64550781 69.24097656 -2.52539062 69.23632812 C-4.64195663 69.22450373 -6.75848685 69.20656769 -8.875 69.1875 C-9.205 67.2075 -9.535 65.2275 -9.875 63.1875 C-10.47828125 63.60902344 -11.0815625 64.03054687 -11.703125 64.46484375 C-12.90195312 65.28662109 -12.90195312 65.28662109 -14.125 66.125 C-14.91390625 66.67027344 -15.7028125 67.21554688 -16.515625 67.77734375 C-23.13007381 71.73068153 -32.39311996 70.99611174 -39.875 70.1875 C-47.10021422 68.19833609 -51.19339375 64.60062056 -54.875 58.1875 C-56.99917681 51.81496958 -57.05759293 43.79937449 -54.25 37.625 C-51.89300128 33.1023828 -47.5322144 30.81302785 -42.89453125 29.0625 C-35.0423223 26.92011899 -27.1785419 25.1166772 -19.18481445 23.58203125 C-18.408396 23.42863281 -17.63197754 23.27523437 -16.83203125 23.1171875 C-16.14085205 22.98554199 -15.44967285 22.85389648 -14.73754883 22.71826172 C-12.56565339 22.20186111 -12.56565339 22.20186111 -9.875 20.1875 C-10.08012031 15.20139422 -10.08012031 15.20139422 -12.8125 11.25 C-17.23796873 9.7146333 -21.24288707 9.51940679 -25.875 10.1875 C-29.53928344 11.98633005 -31.38839149 13.01123769 -32.9609375 16.8125 C-34.875 19.1875 -34.875 19.1875 -36.80004883 19.59106445 C-39.23817399 19.68065774 -41.62588809 19.62249016 -44.0625 19.5 C-44.90748047 19.47744141 -45.75246094 19.45488281 -46.62304688 19.43164062 C-48.70778798 19.37274963 -50.79161804 19.28306798 -52.875 19.1875 C-53.17636593 11.59855806 -51.20668249 8.13649696 -46.44140625 2.48828125 C-34.45076039 -9.38275717 -13.50791619 -8.38194799 0 0 Z " fill="#07427A" transform="translate(754.875,146.8125)"/>
<path d="M0 0 C7.04789201 5.93862686 9.78702169 12.89523894 12.03515625 21.71484375 C12.03515625 26.33484375 12.03515625 30.95484375 12.03515625 35.71484375 C-4.13484375 35.71484375 -20.30484375 35.71484375 -36.96484375 35.71484375 C-34.90072353 45.66574176 -34.90072353 45.66574176 -28.96484375 51.71484375 C-23.06408737 53.68176254 -17.08367216 53.60303359 -11.46484375 50.83984375 C-9.22623411 49.60126875 -7.79491184 48.54491184 -5.96484375 46.71484375 C-4.08544922 46.48779297 -4.08544922 46.48779297 -1.83203125 46.51953125 C-1.02636719 46.52597656 -0.22070312 46.53242188 0.609375 46.5390625 C1.45113281 46.55582031 2.29289062 46.57257813 3.16015625 46.58984375 C4.43439453 46.60337891 4.43439453 46.60337891 5.734375 46.6171875 C7.83475509 46.64078728 9.93499069 46.67665892 12.03515625 46.71484375 C10.04789602 54.57871636 7.06262909 59.28256603 0.046875 63.51953125 C-10.75989502 69.03507444 -22.14603003 70.62249814 -34.125 68.03125 C-43.83063802 64.41601235 -49.55693712 57.8317572 -53.9375 48.68359375 C-57.73049717 38.66302447 -57.72393232 24.58879074 -54.33984375 14.46484375 C-49.53392046 3.82196864 -42.27457354 -2.2829458 -31.46484375 -6.72265625 C-19.85547676 -8.58844737 -9.63618084 -6.95096643 0 0 Z " fill="#064079" transform="translate(440.96484375,148.28515625)"/>
<path d="M0 0 C8.25611195 4.86161296 14.06670462 11.88160529 17.6171875 20.7578125 C19.48878371 31.42591088 17.7365054 40.59254955 11.5546875 49.6328125 C6.63662449 55.68103645 -0.0373689 60.05466601 -7.7578125 61.3203125 C-18.75384051 62.17127476 -26.33035173 61.10914608 -34.9453125 54.1328125 C-42.27294552 47.30246396 -46.62356007 39.67579031 -47.1328125 29.5703125 C-46.85411904 19.88938169 -43.08012927 12.4288445 -36.36328125 5.55859375 C-25.86545037 -3.4597827 -12.76960177 -5.98705919 0 0 Z " fill="#FAFBFC" transform="translate(312.7578125,177.6796875)"/>
<path d="M0 0 C7.69457823 5.19548444 12.47883269 12.10956789 15 21 C16.08757281 30.85138626 14.86274581 39.62706476 9.01171875 47.765625 C3.66223932 54.08521728 -1.72066189 58.37079214 -10 60 C-21.40729928 60.87637942 -29.83703366 59.66756641 -38.8125 52.375 C-44.74557471 46.76745682 -48.58706882 39.4872201 -49.203125 31.30078125 C-49.36369453 21.06447351 -47.61807539 14.0483121 -41.02734375 6.078125 C-29.89221725 -5.33591604 -14.0780152 -7.44531537 0 0 Z " fill="#FBFCFC" transform="translate(212,179)"/>
<path d="M0 0 C0.74886475 0.00523682 1.49772949 0.01047363 2.26928711 0.01586914 C3.07817383 0.0190918 3.88706055 0.02231445 4.72045898 0.02563477 C5.5705957 0.03401367 6.42073242 0.04239258 7.29663086 0.05102539 C8.15063477 0.05553711 9.00463867 0.06004883 9.88452148 0.06469727 C12.00108749 0.07652166 14.11761771 0.0944577 16.23413086 0.11352539 C16.24293022 0.97343834 16.24293022 0.97343834 16.25190735 1.85072327 C16.31602451 7.837325 16.40049087 13.82339824 16.49658203 19.80957031 C16.52976054 22.0412701 16.55781434 24.27305237 16.58056641 26.50488281 C16.61424212 29.71983874 16.66656571 32.93404359 16.72241211 36.14868164 C16.72880203 37.14062027 16.73519196 38.1325589 16.74177551 39.15455627 C16.86212961 44.87273814 17.4067909 49.09302687 20.23413086 54.11352539 C23.65742937 56.3957244 25.07550754 56.41093702 29.10913086 56.42602539 C30.13780273 56.4427832 31.16647461 56.45954102 32.22631836 56.47680664 C35.77796728 56.04784125 37.48049702 55.4051088 40.23413086 53.11352539 C43.42106439 47.26165606 43.6880335 42.20469495 43.71069336 35.62133789 C43.73406265 34.14151932 43.73406265 34.14151932 43.75790405 32.63180542 C43.8052033 29.50071927 43.83313274 26.3698546 43.85913086 23.23852539 C43.89559928 20.08592673 43.93613009 16.93345435 43.98178101 13.78097534 C44.00905595 11.82347022 44.03038612 9.86587183 44.0453186 7.90823364 C44.06071182 6.59083694 44.06071182 6.59083694 44.07641602 5.24682617 C44.08291168 4.47074005 44.08940735 3.69465393 44.09609985 2.89505005 C44.23413086 1.11352539 44.23413086 1.11352539 45.23413086 0.11352539 C48.07748134 0.01365564 50.89110249 -0.02525342 53.73413086 -0.01147461 C54.93102539 -0.01727539 54.93102539 -0.01727539 56.15209961 -0.02319336 C62.10752319 -0.01308228 62.10752319 -0.01308228 63.23413086 1.11352539 C63.32849615 3.35282425 63.35155413 5.59514289 63.34765625 7.83642578 C63.34780228 8.53882889 63.3479483 9.24123199 63.34809875 9.96492004 C63.34739958 12.29703818 63.33960703 14.62907739 63.33178711 16.96118164 C63.32992294 18.57400977 63.32849903 20.18683846 63.32749939 21.79966736 C63.32367409 26.05267896 63.31384371 30.30565663 63.30279541 34.55865479 C63.29258155 38.89529969 63.28800182 43.23195006 63.28295898 47.56860352 C63.27222144 56.08359481 63.25462456 64.59855198 63.23413086 73.11352539 C56.96413086 73.11352539 50.69413086 73.11352539 44.23413086 73.11352539 C43.73913086 69.64852539 43.73913086 69.64852539 43.23413086 66.11352539 C42.79842773 66.52344727 42.36272461 66.93336914 41.91381836 67.35571289 C41.31827148 67.89454102 40.72272461 68.43336914 40.10913086 68.98852539 C39.52905273 69.52219727 38.94897461 70.05586914 38.35131836 70.60571289 C31.38343364 75.56808098 22.37279813 74.76428927 14.23413086 74.11352539 C8.0033889 72.5558399 3.56611309 68.50723867 0.23413086 63.11352539 C-2.7041369 55.46301788 -3.18888934 48.03175204 -3.09399414 39.91821289 C-3.09212097 38.8041507 -3.0902478 37.6900885 -3.08831787 36.54226685 C-3.08164526 34.21117108 -3.06782775 31.88008559 -3.04711914 29.54907227 C-3.01565109 25.9636812 -3.00611082 22.37872909 -3.00024414 18.79321289 C-2.99108552 16.52237413 -2.98071342 14.25153988 -2.96899414 11.98071289 C-2.96474426 10.90481903 -2.96049438 9.82892517 -2.95611572 8.72042847 C-2.94650818 7.73495026 -2.93690063 6.74947205 -2.92700195 5.73413086 C-2.91675995 4.42821487 -2.91675995 4.42821487 -2.90631104 3.09591675 C-2.72652606 0.55818271 -2.55006877 0.16394055 0 0 Z " fill="#064179" transform="translate(547.765869140625,142.886474609375)"/>
<path d="M0 0 C6.07333332 4.37442768 10.12616049 9.83044597 13.45703125 16.4921875 C13.49702325 18.49178762 13.50049924 20.49265992 13.45703125 22.4921875 C-2.83994641 23.72214808 -2.83994641 23.72214808 -6.86328125 20.81640625 C-8.29296875 18.6796875 -8.29296875 18.6796875 -9.46875 16.47265625 C-11.14994084 13.37315169 -13.27580513 12.55901644 -16.54296875 11.4921875 C-21.78252554 10.93080642 -25.11074228 11.63586378 -29.54296875 14.4921875 C-35.66965169 20.95924172 -36.00103248 27.23476997 -35.7890625 35.81640625 C-35.44164854 41.00555758 -34.79282365 45.11034112 -31.078125 49.04296875 C-26.32651986 53.1672226 -23.19396725 53.84879267 -17.08203125 53.76953125 C-13.31836473 53.35842306 -11.32506688 52.0093239 -8.54296875 49.4921875 C-8.01960937 48.4609375 -7.49625 47.4296875 -6.95703125 46.3671875 C-4.54296875 43.4921875 -4.54296875 43.4921875 -2.53564453 43.00634766 C-0.0965356 42.90114729 2.27033995 42.96870162 4.70703125 43.1171875 C5.96773437 43.15779297 5.96773437 43.15779297 7.25390625 43.19921875 C9.32271759 43.26974641 11.39020518 43.37736383 13.45703125 43.4921875 C12.5998392 52.7557061 9.38148422 58.34695517 2.14453125 64.3671875 C-7.28504675 71.08478769 -17.26741734 71.63665597 -28.54296875 70.4921875 C-36.80348895 68.86182167 -43.13573369 63.79287276 -48.54296875 57.4921875 C-55.77021352 45.80838611 -57.90765047 32.7228053 -54.7890625 19.23046875 C-53.85929256 16.84952848 -52.82905678 14.69818571 -51.54296875 12.4921875 C-50.96546875 11.4403125 -50.38796875 10.3884375 -49.79296875 9.3046875 C-37.29700551 -6.31526655 -17.49117581 -10.37111192 0 0 Z " fill="#064179" transform="translate(676.54296875,146.5078125)"/>
<path d="M0 0 C6.6 0 13.2 0 20 0 C20 7.26 20 14.52 20 22 C24.89153471 21.9604321 24.89153471 21.9604321 29.78295898 21.90991211 C31.52221717 21.90275087 33.26145304 21.94975298 35 22 C36 23 36 23 36.1328125 26.125 C36.13023437 27.40375 36.12765625 28.6825 36.125 30 C36.12886719 31.918125 36.12886719 31.918125 36.1328125 33.875 C36 37 36 37 35 38 C32.46950598 38.07313567 29.96695163 38.09247527 27.4375 38.0625 C26.72658203 38.05798828 26.01566406 38.05347656 25.28320312 38.04882812 C23.52209987 38.03700864 21.76103964 38.01907263 20 38 C20.0934007 43.37547591 20.1994635 48.75049421 20.31738281 54.12548828 C20.35571777 55.95484529 20.39056263 57.78427885 20.421875 59.61376953 C20.46742805 62.24018759 20.52543731 64.86607659 20.5859375 67.4921875 C20.59748871 68.31306854 20.60903992 69.13394958 20.62094116 69.97970581 C20.5572544 74.4624644 20.5572544 74.4624644 23 78 C26.12196336 78.46486718 26.12196336 78.46486718 29.625 78.625 C30.81351563 78.69976562 32.00203125 78.77453125 33.2265625 78.8515625 C34.59941406 78.92503906 34.59941406 78.92503906 36 79 C36.02684679 81.64590014 36.04676357 84.29153096 36.0625 86.9375 C36.07087891 87.69224609 36.07925781 88.44699219 36.08789062 89.22460938 C36.09652441 91.14994313 36.05224333 93.07535581 36 95 C33.94830393 97.05169607 29.81175362 96.2402503 27 96.25 C12.83724935 96.21614247 12.83724935 96.21614247 7.23828125 91.5234375 C0.92238971 84.82522807 -0.45789031 77.34823418 -0.29296875 68.46875 C-0.28872391 67.59222778 -0.28447906 66.71570557 -0.28010559 65.81262207 C-0.2634513 63.04142177 -0.22582509 60.27097664 -0.1875 57.5 C-0.17243599 55.60938558 -0.1587506 53.71875964 -0.14648438 51.828125 C-0.11359139 47.21846361 -0.06190255 42.60935938 0 38 C-3.63 38 -7.26 38 -11 38 C-11.02685095 35.52076199 -11.04676547 33.0418116 -11.0625 30.5625 C-11.07506836 29.50192383 -11.07506836 29.50192383 -11.08789062 28.41992188 C-11.09653588 26.61306441 -11.05220011 24.80612397 -11 23 C-10.67 22.67 -10.34 22.34 -10 22 C-6.7 22 -3.4 22 0 22 C0 14.74 0 7.48 0 0 Z " fill="#09457C" transform="translate(783,120)"/>
<path d="M0 0 C0.74886475 0.00523682 1.49772949 0.01047363 2.26928711 0.01586914 C3.07817383 0.0190918 3.88706055 0.02231445 4.72045898 0.02563477 C5.5705957 0.03401367 6.42073242 0.04239258 7.29663086 0.05102539 C8.15063477 0.05553711 9.00463867 0.06004883 9.88452148 0.06469727 C12.00108749 0.07652166 14.11761771 0.0944577 16.23413086 0.11352539 C16.56413086 3.41352539 16.89413086 6.71352539 17.23413086 10.11352539 C17.91475586 9.20602539 18.59538086 8.29852539 19.29663086 7.36352539 C22.13144927 4.04048825 25.00923668 1.43096551 29.23413086 0.11352539 C33.25910605 -0.19919198 37.20676324 -0.1245456 41.23413086 0.11352539 C41.26097398 2.9260882 41.28089274 5.7383978 41.29663086 8.55102539 C41.30500977 9.3534668 41.31338867 10.1559082 41.32202148 10.98266602 C41.33064516 13.0264776 41.28641236 15.07036441 41.23413086 17.11352539 C39.10478067 19.24287558 33.9639855 18.79178266 30.95678711 19.01196289 C27.31254462 19.39858194 25.3339745 20.03487761 22.43725586 22.31665039 C17.54161483 28.53168404 16.77629425 33.43559701 16.72241211 41.10571289 C16.70446091 42.05165314 16.6865097 42.99759338 16.66801453 43.97219849 C16.61406448 46.97759618 16.58006482 49.98283643 16.54663086 52.98852539 C16.51344429 55.03281806 16.47895339 57.07708999 16.44311523 59.12133789 C16.35834671 64.11861987 16.29146247 69.11585638 16.23413086 74.11352539 C13.25490492 74.14036526 10.27591791 74.16028576 7.29663086 74.17602539 C6.44649414 74.1844043 5.59635742 74.1927832 4.72045898 74.20141602 C3.91157227 74.20463867 3.10268555 74.20786133 2.26928711 74.21118164 C1.52042236 74.21641846 0.77155762 74.22165527 0 74.22705078 C-1.76586914 74.11352539 -1.76586914 74.11352539 -2.76586914 73.11352539 C-2.86550834 70.87965333 -2.89386709 68.6425868 -2.89526367 66.40649414 C-2.89701599 65.70569733 -2.89876831 65.00490051 -2.90057373 64.28286743 C-2.9049918 61.9555619 -2.90205443 59.62833175 -2.89868164 57.30102539 C-2.89935469 55.6905923 -2.90032473 54.08015931 -2.90158081 52.46972656 C-2.90305772 49.09024084 -2.90090345 45.71078149 -2.89624023 42.33129883 C-2.89054294 37.98976034 -2.89382199 33.64828366 -2.8998127 29.30674744 C-2.9034185 25.98001638 -2.90227964 22.65330009 -2.89968491 19.3265686 C-2.89901569 17.72531121 -2.89984388 16.12405249 -2.90216446 14.52279663 C-2.9046913 12.28868028 -2.90084999 10.05466539 -2.89526367 7.82055664 C-2.89446808 6.54672119 -2.89367249 5.27288574 -2.89285278 3.96044922 C-2.72401283 0.17512318 -2.72401283 0.17512318 0 0 Z " fill="#054079" transform="translate(908.765869140625,141.886474609375)"/>
<path d="M0 0 C4.97755924 3.14201678 7.47086503 7.56324834 8.86328125 13.19921875 C9.75978336 21.43073815 9.71097727 30.26707724 4.421875 37.046875 C0.73834759 40.66203068 -2.71544321 42.13000042 -7.86328125 42.3671875 C-12.97423208 41.98957429 -16.77082006 40.52820126 -20.44921875 36.94921875 C-25.46919246 28.76852085 -26.53157207 21.35946579 -24.66796875 11.79296875 C-23.02187784 6.69792547 -20.1749952 3.64857989 -16.13671875 0.19921875 C-10.99971236 -1.51311671 -5.14279925 -1.92737449 0 0 Z " fill="#F9FAFB" transform="translate(868.13671875,158.80078125)"/>
<path d="M0 0 C5.28073816 2.7606462 8.07619529 6.76764838 9.92578125 12.31640625 C11.06424701 29.09477869 11.06424701 29.09477869 5.92578125 36.31640625 C0.60657769 41.2556667 -2.9827444 41.6748569 -10.08984375 41.58984375 C-14.15175648 41.21767897 -16.15882471 40.15891544 -19.07421875 37.31640625 C-24.04117417 30.38838752 -24.85660769 23.64719548 -24.07421875 15.31640625 C-22.38927891 8.49962105 -19.89295823 4.23773068 -14.07421875 0.31640625 C-9.91833009 -1.76153808 -4.35080369 -1.43388069 0 0 Z " fill="#F9FAFB" transform="translate(504.07421875,158.68359375)"/>
<path d="M0 0 C0.62721538 10.76719736 0.62721538 10.76719736 -1.8125 15.5625 C-2.8953125 16.7690625 -2.8953125 16.7690625 -4 18 C-4.515625 18.598125 -5.03125 19.19625 -5.5625 19.8125 C-9.50706834 23.07105645 -15.05350242 22.38825917 -19.87890625 22.33984375 C-23 22 -23 22 -26.3125 19.9375 C-28.43292123 16.24639637 -28.68613138 14.19302511 -28 10 C-25.0519598 5.38567621 -20.0440341 4.31583498 -15 3 C-12.39447619 2.42768841 -9.78900266 1.90467667 -7.1640625 1.4296875 C-4.68211937 0.93688291 -2.54434201 0 0 0 Z " fill="#F6F8FA" transform="translate(746,181)"/>
<path d="M0 0 C4.80050635 2.40025318 7.52716549 5.24454901 10 10 C10 11.98 10 13.96 10 16 C0.1 16 -9.8 16 -20 16 C-18.96373111 9.78238669 -17.66435381 6.34140183 -12.9375 2.1875 C-8.86411082 -0.30909337 -4.65493512 -0.62713547 0 0 Z " fill="#F8FAFB" transform="translate(424,156)"/>
<path d="M0 0 C1.76150391 -0.02126953 1.76150391 -0.02126953 3.55859375 -0.04296875 C6.5625 0.1875 6.5625 0.1875 8.5625 2.1875 C8.00694444 6.74305556 8.00694444 6.74305556 6.5625 8.1875 C4.4204034 8.33904969 2.27226538 8.40927745 0.125 8.4375 C-1.04933594 8.46328125 -2.22367188 8.4890625 -3.43359375 8.515625 C-4.42488281 8.40734375 -5.41617188 8.2990625 -6.4375 8.1875 C-8.4375 5.1875 -8.4375 5.1875 -8.125 3.0625 C-6.64545935 -0.97261086 -3.95362036 0.02165181 0 0 Z " fill="#F1F6F8" transform="translate(246.4375,190.8125)"/>
<path d="M0 0 C2.31243792 -0.02685412 4.6249627 -0.04632841 6.9375 -0.0625 C8.22527344 -0.07410156 9.51304687 -0.08570313 10.83984375 -0.09765625 C14 0 14 0 15 1 C15.14426614 5.66845228 15.04208415 10.32865953 15 15 C9.39 15 3.78 15 -2 15 C-2 14.67 -2 14.34 -2 14 C2.95 14 7.9 14 13 14 C13 10.04 13 6.08 13 2 C8.38 2 3.76 2 -1 2 C-0.67 1.34 -0.34 0.68 0 0 Z " fill="#012E6C" transform="translate(804,142)"/>
<path d="M0 0 C0.33 0 0.66 0 1 0 C1.1958691 3.81211903 1.38029565 7.62470534 1.5625 11.4375 C1.61857422 12.52611328 1.67464844 13.61472656 1.73242188 14.73632812 C1.78076172 15.77080078 1.82910156 16.80527344 1.87890625 17.87109375 C1.9260376 18.82943115 1.97316895 19.78776855 2.02172852 20.77514648 C2 23 2 23 1 24 C-0.68608966 24.07205511 -2.37500659 24.08386068 -4.0625 24.0625 C-4.98160156 24.05347656 -5.90070312 24.04445312 -6.84765625 24.03515625 C-7.55792969 24.02355469 -8.26820313 24.01195312 -9 24 C-9.33 23.34 -9.66 22.68 -10 22 C-6.7 22 -3.4 22 0 22 C0 14.74 0 7.48 0 0 Z " fill="#2F5C8C" transform="translate(783,120)"/>
<path d="M0 0 C0.66 0 1.32 0 2 0 C2 4.29 2 8.58 2 13 C5.3 13 8.6 13 12 13 C12 13.33 12 13.66 12 14 C6.06 14.495 6.06 14.495 0 15 C0 10.05 0 5.1 0 0 Z " fill="#123C76" transform="translate(772,143)"/>
</svg>
